<svg fill="none" stroke-linecap="square" stroke-miterlimit="10" width="600" height="371" xmlns="http://www.w3.org/2000/svg"><path fill="#fff" d="M0 0h600v371H0V0z"/><path stroke="#ccc" stroke-linecap="butt" d="M84.5 272.5h497M84.5 200.5h497M84.5 169.5h497M84.5 96.5h497M84.5 65.5h497"/><clipPath id="a"><path d="M84.55 61.917h496.9V272.45H84.55V61.917z"/></clipPath><path stroke="#4285f4" stroke-width="2" stroke-linecap="butt" clip-path="url(#a)" d="M137.37 162.427v13.735M137.37 193.726v-22.055"/><path fill="#4285f4" clip-path="url(#a)" d="M110.938 170.671h52.864v6.491h-52.864v-6.49z"/><path stroke="#4285f4" stroke-width="2" stroke-linecap="butt" clip-path="url(#a)" d="M215.622 166.815v22.33M215.622 201.075v-17.669"/><path fill="#4285f4" clip-path="url(#a)" d="M189.19 182.406h52.864v7.738H189.19v-7.738z"/><path stroke="#4285f4" stroke-width="2" stroke-linecap="butt" clip-path="url(#a)" d="M293.874 61.917v16.407M293.874 86.899V74.541"/><path fill="#4285f4" clip-path="url(#a)" d="M267.442 73.541h52.864v5.783h-52.864v-5.783z"/><path stroke="#4285f4" stroke-width="2" stroke-linecap="butt" clip-path="url(#a)" d="M372.126 158.455v32.986M372.126 200.464v-15.161"/><path fill="#4285f4" clip-path="url(#a)" d="M345.694 184.303h52.864v8.138h-52.864v-8.138z"/><path stroke="#4285f4" stroke-width="2" stroke-linecap="butt" clip-path="url(#a)" d="M528.63 192.368v.952M528.63 193.32v-.952"/><path fill="#4285f4" clip-path="url(#a)" d="M502.198 185.619h52.864v10.925h-52.864v-10.925z"/><path fill="#000" d="M302.875 349.45v-8.594h3.234q.985 0 1.579.266.593.265.921.812.344.532.344 1.125 0 .547-.297 1.032-.297.484-.906.78.781.235 1.188.798.421.547.421 1.297 0 .593-.25 1.125-.25.515-.625.796-.375.282-.953.422-.562.141-1.375.141h-3.281zm1.14-4.984h1.86q.75 0 1.078-.094.438-.125.656-.422.22-.313.22-.766 0-.422-.204-.75-.203-.328-.594-.437-.375-.125-1.297-.125h-1.718v2.594zm0 3.968h2.141q.547 0 .766-.047.406-.062.656-.218.266-.172.438-.485.171-.312.171-.718 0-.485-.25-.844-.234-.36-.671-.5-.438-.14-1.266-.14h-1.984v2.952zm11.032-.984l1.094.125q-.25.953-.954 1.484-.703.532-1.78.532-1.36 0-2.173-.844-.796-.844-.796-2.36 0-1.562.812-2.421.813-.875 2.094-.875 1.25 0 2.031.843.797.844.797 2.391v.281h-4.64q.062 1.031.577 1.578.516.532 1.297.532.578 0 .985-.297.421-.313.656-.969zm-3.453-1.703h3.469q-.063-.797-.391-1.188-.516-.609-1.313-.609-.734 0-1.234.484-.484.485-.531 1.313zm6.203 3.703v-6.219h.937v.875q.688-1.015 1.985-1.015.562 0 1.031.203.484.203.719.531.234.328.328.766.047.296.047 1.03v3.829h-1.047v-3.781q0-.656-.125-.969-.125-.313-.438-.5-.312-.203-.734-.203-.672 0-1.172.437-.484.422-.484 1.61v3.406h-1.047zm11.062-2.281l1.032.14q-.172 1.063-.875 1.672-.704.61-1.72.61-1.28 0-2.062-.829-.765-.843-.765-2.406 0-1 .328-1.75.344-.765 1.015-1.14.688-.375 1.5-.375 1 0 1.641.515.656.5.844 1.453l-1.031.157q-.141-.625-.516-.938-.375-.328-.906-.328-.797 0-1.297.578-.5.563-.5 1.797 0 1.266.484 1.828.485.563 1.25.563.625 0 1.031-.375.422-.375.547-1.172zm1.938 2.281v-8.594h1.047v3.078q.734-.843 1.86-.843.702 0 1.202.28.516.267.735.75.218.47.218 1.392v3.937h-1.046v-3.938q0-.796-.344-1.156-.344-.36-.969-.36-.469 0-.89.25-.407.235-.594.657-.172.406-.172 1.14v3.407h-1.047zm7 0v-6.219h.937v.875q.297-.469.782-.734.484-.281 1.109-.281.688 0 1.125.28.453.282.625.798.75-1.078 1.922-1.078.937 0 1.422.515.5.5.5 1.578v4.266h-1.047v-3.922q0-.625-.11-.906-.093-.281-.359-.453-.265-.172-.64-.172-.657 0-1.094.437-.422.438-.422 1.407v3.609h-1.063v-4.047q0-.703-.265-1.047-.25-.36-.828-.36-.454 0-.829.235-.375.235-.546.688-.172.453-.172 1.297v3.234h-1.047zm14.062-.766q-.593.5-1.14.703-.531.204-1.156.204-1.032 0-1.579-.5-.546-.5-.546-1.282 0-.453.203-.828.203-.39.546-.61.344-.233.766-.343.297-.094.938-.172 1.265-.14 1.875-.36v-.265q0-.656-.297-.922-.406-.343-1.203-.343-.735 0-1.094.265-.36.25-.531.906l-1.032-.14q.141-.656.47-1.063.327-.406.937-.625.609-.218 1.406-.218.797 0 1.297.187.5.188.734.469.235.281.328.719.047.265.047.968v1.407q0 1.468.063 1.859.078.39.28.75h-1.108q-.157-.328-.204-.766zm-.093-2.359q-.579.234-1.72.406-.655.094-.921.219-.266.11-.422.328-.14.219-.14.5 0 .422.312.703.328.281.938.281.609 0 1.078-.265.484-.266.703-.735.172-.359.172-1.046v-.391zm3.015 3.125v-6.219h.953v.938q.36-.656.657-.86.312-.218.687-.218.531 0 1.078.328l-.36.984q-.39-.234-.765-.234-.36 0-.64.219-.266.203-.375.578-.188.562-.188 1.218v3.266h-1.047zm4.016 0v-8.594h1.062v4.906l2.485-2.53h1.375l-2.39 2.296 2.624 3.922h-1.297l-2.062-3.188-.735.72v2.468h-1.062zM26.534 240.12l.297-1.124q1.39.36 2.125 1.281.735.922.735 2.266 0 1.39-.563 2.265-.562.875-1.625 1.328-1.078.454-2.312.454-1.344 0-2.344-.516-1-.516-1.516-1.453-.515-.953-.515-2.094 0-1.281.656-2.156.656-.89 1.844-1.235l.265 1.125q-.937.297-1.36.875-.437.563-.437 1.422 0 .985.485 1.657.469.656 1.265.937.797.266 1.657.266 1.093 0 1.906-.313.812-.328 1.219-1 .406-.672.406-1.469 0-.953-.547-1.609-.547-.672-1.64-.906zm-.093-2.343q-1.735 0-2.563-.953-.687-.797-.687-1.953 0-1.281.843-2.094.829-.828 2.313-.828 1.203 0 1.89.36.688.359 1.079 1.062.375.687.375 1.5 0 1.297-.828 2.11-.844.796-2.422.796zm0-1.078q1.187 0 1.78-.516.595-.53.595-1.312 0-.797-.594-1.313-.594-.515-1.813-.515-1.156 0-1.75.531-.593.516-.593 1.297 0 .781.593 1.312.579.516 1.782.516zm3.109-6.313h-6.219v-.937h.875q-.468-.297-.734-.781-.281-.485-.281-1.11 0-.687.28-1.125.282-.453.798-.625-1.078-.75-1.078-1.922 0-.937.515-1.421.5-.5 1.578-.5h4.266v1.046h-3.922q-.625 0-.906.11-.281.094-.453.36-.172.265-.172.64 0 .656.437 1.094.438.421 1.407.421h3.609v1.063h-4.047q-.703 0-1.047.266-.36.25-.36.828 0 .453.235.828.235.375.688.547.453.172 1.297.172h3.234v1.046zm2.39-10h-8.609v-.953h.797q-.469-.343-.703-.765-.234-.438-.234-1.047 0-.797.406-1.406.406-.61 1.156-.907.75-.312 1.64-.312.954 0 1.72.344.765.328 1.171.984.407.656.407 1.375 0 .531-.22.953-.233.422-.562.688h3.032v1.046zm-5.468-.953q1.203 0 1.781-.484.563-.484.563-1.172 0-.703-.594-1.203-.594-.5-1.844-.5-1.187 0-1.765.484-.594.485-.594 1.172 0 .672.625 1.188.625.515 1.828.515zm-4.297-6.047h-1.219v-1.062h1.219v1.062zm7.375 0h-6.219v-1.062h6.219v1.062zm0-2.968h-8.594v-1.063h8.594v1.063zm-.766-7.094q.5.594.704 1.14.203.532.203 1.157 0 1.031-.5 1.578-.5.547-1.282.547-.453 0-.828-.203-.39-.203-.61-.547-.233-.344-.343-.766-.094-.297-.172-.937-.14-1.266-.36-1.875h-.265q-.656 0-.922.297-.343.406-.343 1.203 0 .734.265 1.093.25.36.907.532l-.141 1.031q-.656-.14-1.063-.469-.406-.328-.625-.937-.218-.61-.218-1.407 0-.796.187-1.296.188-.5.469-.735.281-.234.719-.328.265-.047.968-.047h1.407q1.468 0 1.859-.062.39-.078.75-.282v1.11q-.328.156-.766.203zm-2.359.094q.234.578.406 1.718.094.657.219.922.11.266.328.422.219.14.5.14.422 0 .703-.312.282-.328.282-.937 0-.61-.266-1.078-.266-.485-.734-.703-.36-.172-1.047-.172h-.391zm2.188-5.328l.921-.157q.094.453.094.797 0 .578-.172.89-.187.313-.484.454-.297.125-1.25.125h-3.578v.766h-.813v-.766h-1.547l-.625-1.047h2.172v-1.062h.813v1.062h3.64q.454 0 .579-.047.125-.062.203-.187.078-.125.078-.36 0-.187-.031-.468zm-6.438-.704h-1.219v-1.062h1.219v1.062zm7.375 0h-6.219v-1.062h6.219v1.062zm-3.11-2.609q-1.734 0-2.562-.953-.687-.797-.687-1.953 0-1.281.843-2.094.829-.828 2.313-.828 1.203 0 1.89.36.688.359 1.079 1.062.375.687.375 1.5 0 1.297-.828 2.11-.844.796-2.422.796zm0-1.078q1.188 0 1.782-.516.594-.53.594-1.312 0-.797-.594-1.313-.594-.515-1.813-.515-1.156 0-1.75.531-.593.516-.593 1.297 0 .781.593 1.312.579.516 1.782.516zm3.11-6.313h-6.219v-.937h.875q-1.015-.688-1.015-1.984 0-.563.203-1.032.203-.484.531-.718.328-.235.766-.329.297-.046 1.03-.046h3.829v1.046h-3.781q-.656 0-.969.125-.312.125-.5.438-.203.312-.203.734 0 .672.437 1.172.422.485 1.61.485h3.406v1.046zm-.937-12.296l.921-.157q.094.453.094.797 0 .578-.172.89-.187.313-.484.454-.297.125-1.25.125h-3.578v.766h-.813v-.766h-1.547l-.625-1.047h2.172v-1.062h.813v1.062h3.64q.454 0 .579-.047.125-.062.203-.187.078-.125.078-.36 0-.187-.031-.468zm-6.438-.704h-1.219v-1.062h1.219v1.062zm7.375 0h-6.219v-1.062h6.219v1.062zm0-3h-6.219v-.937h.875q-.468-.297-.734-.781-.281-.485-.281-1.11 0-.687.28-1.125.282-.453.798-.625-1.078-.75-1.078-1.922 0-.937.515-1.421.5-.5 1.578-.5h4.266v1.046h-3.922q-.625 0-.906.11-.281.094-.453.36-.172.265-.172.64 0 .656.437 1.094.438.421 1.407.421h3.609v1.063h-4.047q-.703 0-1.047.266-.36.25-.36.828 0 .453.235.828.235.375.688.547.453.172 1.297.172h3.234v1.046zm-2-14.25l.125-1.093q.953.25 1.484.953.532.703.532 1.781 0 1.36-.844 2.172-.844.797-2.36.797-1.562 0-2.421-.813-.875-.812-.875-2.093 0-1.25.843-2.032.844-.797 2.391-.797h.281v4.641q1.032-.062 1.578-.578.532-.516.532-1.297 0-.578-.297-.984-.313-.422-.969-.657zm-1.703 3.454v-3.47q-.797.063-1.188.391-.609.516-.609 1.313 0 .734.484 1.234.485.485 1.313.532zm6.234-11.22q-1.11.876-2.578 1.485-1.484.594-3.062.594-1.391 0-2.672-.438-1.485-.53-2.953-1.64v-.75q1.218.703 1.734.937.813.36 1.688.563 1.093.25 2.203.25 2.828 0 5.64-1.75v.75zm-2.531-1.984h-6.219v-.937h.875q-.468-.297-.734-.781-.281-.485-.281-1.11 0-.687.28-1.125.282-.453.798-.625-1.078-.75-1.078-1.922 0-.937.515-1.421.5-.5 1.578-.5h4.266v1.046h-3.922q-.625 0-.906.11-.281.094-.453.36-.172.265-.172.64 0 .656.437 1.094.438.421 1.407.421h3.609v1.063h-4.047q-.703 0-1.047.266-.36.25-.36.828 0 .453.235.828.235.375.688.547.453.172 1.297.172h3.234v1.046zm-1.86-9.578l-.156-1.03q.625-.095.954-.485.328-.407.328-1.14 0-.72-.282-1.063-.296-.36-.703-.36-.36 0-.562.313-.14.218-.36 1.078-.296 1.156-.5 1.61-.218.437-.593.671-.375.234-.844.234-.406 0-.766-.187-.36-.188-.593-.516-.172-.25-.297-.672-.125-.421-.125-.921 0-.72.218-1.266.204-.563.563-.828.36-.266.953-.36l.14 1.032q-.468.062-.734.406-.281.328-.281.953 0 .719.25 1.031.234.313.563.313.203 0 .359-.125.172-.14.281-.406.063-.157.266-.938.312-1.125.5-1.562.187-.438.547-.688.359-.25.906-.25.531 0 1 .313.453.296.719.875.25.578.25 1.312 0 1.219-.5 1.86-.516.624-1.5.796zm4.391-7.109v.75q-2.812-1.75-5.64-1.75-1.094 0-2.188.25-.875.203-1.687.562-.516.235-1.75.938v-.75q1.468-1.094 2.953-1.625 1.281-.453 2.672-.453 1.578 0 3.062.61 1.469.609 2.578 1.468zM69.019 276.45h-1.047v-6.719q-.39.36-1.016.735-.61.359-1.094.53v-1.015q.876-.422 1.532-1 .672-.594.953-1.156h.672v8.625zm3.031-4.234q0-1.532.313-2.454.312-.937.921-1.437.625-.5 1.563-.5.687 0 1.203.281.531.281.875.813.344.515.531 1.265.188.75.188 2.032 0 1.515-.313 2.437-.297.922-.922 1.438-.609.5-1.562.5-1.234 0-1.953-.891-.844-1.063-.844-3.484zm1.078 0q0 2.109.5 2.812.5.703 1.219.703.734 0 1.219-.703.5-.703.5-2.812 0-2.125-.5-2.813-.485-.703-1.235-.703-.719 0-1.156.61-.547.78-.547 2.906zM65.05 201.936l1.11-.094q.124.813.562 1.22.453.405 1.094.405.75 0 1.28-.578.532-.578.532-1.515 0-.907-.516-1.422-.5-.532-1.328-.532-.5 0-.922.235-.406.234-.64.594l-.984-.125.828-4.407h4.28v1H66.91l-.453 2.313q.766-.547 1.61-.547 1.125 0 1.89.781.781.781.781 2.016 0 1.156-.671 2.015-.829 1.032-2.25 1.032-1.172 0-1.922-.657-.735-.656-.844-1.734zm7-1.984q0-1.532.313-2.453.312-.938.921-1.438.625-.5 1.563-.5.687 0 1.203.281.531.282.875.813.344.515.531 1.265.188.75.188 2.032 0 1.515-.313 2.437-.297.922-.922 1.438-.609.5-1.562.5-1.234 0-1.953-.89-.844-1.063-.844-3.485zm1.078 0q0 2.11.5 2.812.5.703 1.219.703.734 0 1.219-.703.5-.703.5-2.812 0-2.125-.5-2.813-.485-.703-1.235-.703-.719 0-1.156.61-.547.78-.547 2.906zM62.019 173.064h-1.047v-6.719q-.39.36-1.016.734-.61.36-1.094.532v-1.016q.875-.422 1.532-1 .672-.594.953-1.156h.672v8.625zm3.031-4.235q0-1.53.313-2.453.312-.937.921-1.437.625-.5 1.563-.5.687 0 1.203.281.531.281.875.813.344.515.531 1.265.188.75.188 2.031 0 1.516-.313 2.438-.297.922-.922 1.437-.609.5-1.562.5-1.234 0-1.953-.89-.844-1.063-.844-3.485zm1.078 0q0 2.11.5 2.813.5.703 1.219.703.734 0 1.219-.703.5-.703.5-2.813 0-2.125-.5-2.812-.485-.703-1.235-.703-.719 0-1.156.61-.547.78-.547 2.905zm5.922 0q0-1.53.313-2.453.312-.937.921-1.437.625-.5 1.563-.5.687 0 1.203.281.531.281.875.813.344.515.531 1.265.188.75.188 2.031 0 1.516-.313 2.438-.297.922-.922 1.437-.609.5-1.562.5-1.234 0-1.953-.89-.844-1.063-.844-3.485zm1.078 0q0 2.11.5 2.813.5.703 1.219.703.734 0 1.219-.703.5-.703.5-2.813 0-2.125-.5-2.812-.485-.703-1.235-.703-.719 0-1.156.61-.547.78-.547 2.905zM58.05 98.55l1.11-.094q.124.813.562 1.219.453.406 1.094.406.75 0 1.28-.578.532-.578.532-1.516 0-.906-.516-1.422-.5-.53-1.328-.53-.5 0-.922.234-.406.234-.64.593l-.985-.125.829-4.406h4.28v1H59.91l-.453 2.313q.766-.547 1.61-.547 1.125 0 1.89.781.781.781.781 2.016 0 1.156-.671 2.015-.829 1.031-2.25 1.031-1.172 0-1.922-.656-.735-.656-.844-1.734zm7-1.985q0-1.53.313-2.453.312-.937.921-1.437.625-.5 1.563-.5.687 0 1.203.281.531.281.875.813.344.515.531 1.265.188.75.188 2.031 0 1.516-.313 2.438-.297.922-.922 1.437-.609.5-1.562.5-1.234 0-1.953-.89-.844-1.063-.844-3.485zm1.078 0q0 2.11.5 2.813.5.703 1.219.703.734 0 1.219-.703.5-.703.5-2.813 0-2.125-.5-2.812-.485-.703-1.235-.703-.719 0-1.156.61-.547.78-.547 2.905zm5.922 0q0-1.53.313-2.453.312-.937.921-1.437.625-.5 1.563-.5.687 0 1.203.281.531.281.875.813.344.515.531 1.265.188.75.188 2.031 0 1.516-.313 2.438-.297.922-.922 1.437-.609.5-1.562.5-1.234 0-1.953-.89-.844-1.063-.844-3.485zm1.078 0q0 2.11.5 2.813.5.703 1.219.703.734 0 1.219-.703.5-.703.5-2.813 0-2.125-.5-2.812-.485-.703-1.235-.703-.719 0-1.156.61-.547.78-.547 2.905zM55.019 69.677h-1.047V62.96q-.39.36-1.016.734-.61.36-1.094.531V63.21q.875-.422 1.532-1 .672-.594.953-1.157h.672v8.625zm3.031-4.234q0-1.531.313-2.453.312-.938.921-1.438.625-.5 1.563-.5.687 0 1.203.282.531.281.875.812.344.516.531 1.266.188.75.188 2.031 0 1.516-.313 2.438-.297.921-.922 1.437-.609.5-1.562.5-1.235 0-1.953-.89-.844-1.063-.844-3.485zm1.078 0q0 2.11.5 2.813.5.703 1.219.703.734 0 1.219-.703.5-.704.5-2.813 0-2.125-.5-2.812-.485-.704-1.235-.704-.719 0-1.156.61-.547.781-.547 2.906zm5.922 0q0-1.531.313-2.453.312-.938.921-1.438.625-.5 1.563-.5.687 0 1.203.282.531.281.875.812.344.516.531 1.266.188.75.188 2.031 0 1.516-.313 2.438-.297.921-.922 1.437-.609.5-1.562.5-1.234 0-1.953-.89-.844-1.063-.844-3.485zm1.078 0q0 2.11.5 2.813.5.703 1.219.703.734 0 1.219-.703.5-.704.5-2.813 0-2.125-.5-2.812-.485-.704-1.235-.704-.719 0-1.156.61-.547.781-.547 2.906zm5.922 0q0-1.531.313-2.453.312-.938.921-1.438.625-.5 1.563-.5.687 0 1.203.282.531.281.875.812.344.516.531 1.266.188.75.188 2.031 0 1.516-.313 2.438-.297.921-.922 1.437-.609.5-1.562.5-1.234 0-1.953-.89-.844-1.063-.844-3.485zm1.078 0q0 2.11.5 2.813.5.703 1.219.703.734 0 1.219-.703.5-.704.5-2.813 0-2.125-.5-2.812-.485-.704-1.235-.704-.719 0-1.156.61-.547.781-.547 2.906zM117.308 289.45v-8.594h3.812q1.156 0 1.75.235.594.234.953.828.36.578.36 1.281 0 .922-.594 1.547-.594.625-1.828.797.453.219.687.422.5.453.938 1.14l1.5 2.344h-1.438l-1.125-1.781q-.5-.781-.828-1.188-.312-.406-.578-.562-.25-.172-.516-.25-.187-.031-.625-.031h-1.328v3.812h-1.14zm1.14-4.797h2.453q.766 0 1.203-.156.454-.172.672-.516.235-.36.235-.781 0-.61-.453-1-.438-.39-1.391-.39h-2.719v2.843zm11.781 4.031q-.593.5-1.14.703-.531.204-1.156.204-1.032 0-1.579-.5-.546-.5-.546-1.282 0-.453.203-.828.203-.39.547-.61.343-.233.765-.343.297-.094.938-.172 1.265-.14 1.875-.36v-.265q0-.656-.297-.922-.406-.343-1.203-.343-.735 0-1.094.265-.36.25-.531.906l-1.032-.14q.141-.656.47-1.063.327-.406.937-.625.61-.218 1.406-.218.797 0 1.297.187.5.188.734.469.235.281.328.719.047.265.047.968v1.407q0 1.468.063 1.859.078.39.281.75h-1.11q-.156-.328-.203-.766zm-.093-2.359q-.578.234-1.719.406-.656.094-.922.219-.266.11-.422.328-.14.219-.14.5 0 .422.312.703.328.281.938.281.609 0 1.078-.265.484-.266.703-.735.172-.359.172-1.046v-.391zm3.031 3.125v-6.219h.937v.875q.688-1.015 1.985-1.015.562 0 1.031.203.484.203.719.531.234.328.328.766.047.296.047 1.03v3.829h-1.047v-3.781q0-.656-.125-.969-.125-.313-.438-.5-.312-.203-.734-.203-.672 0-1.172.437-.484.422-.484 1.61v3.406h-1.047zm7 0v-8.594h1.062v4.906l2.485-2.53h1.375l-2.39 2.296 2.624 3.922h-1.297l-2.062-3.188-.735.72v2.468h-1.062zm14.25-1.016v1.016h-5.688q0-.375.125-.734.22-.579.688-1.141.484-.563 1.39-1.297 1.407-1.156 1.891-1.828.5-.672.5-1.266 0-.625-.453-1.047-.453-.437-1.172-.437-.765 0-1.219.453-.453.453-.468 1.266l-1.078-.11q.109-1.218.828-1.843.734-.641 1.968-.641 1.235 0 1.954.688.718.687.718 1.703 0 .515-.218 1.015-.204.485-.704 1.047-.484.547-1.609 1.5-.953.797-1.234 1.094-.266.281-.438.562h4.219zm2.016 1.016v-1.203h1.203v1.203q0 .656-.235 1.063-.234.421-.734.64l-.297-.453q.328-.14.484-.438.157-.28.188-.812h-.61zM125.464 302.512l.156.922q-.453.094-.797.094-.578 0-.89-.172-.313-.187-.454-.484-.125-.297-.125-1.25v-3.578h-.765v-.813h.765v-1.547l1.047-.625v2.172h1.063v.813H124.4v3.64q0 .453.047.578.063.125.188.204.125.078.36.078.187 0 .468-.031zm.656 3.329l-.125-.985q.344.094.61.094.343 0 .546-.125.22-.11.36-.313.093-.171.328-.796.015-.079.094-.25l-2.375-6.235h1.14l1.297 3.594q.25.688.453 1.453.188-.734.438-1.422l1.328-3.625h1.047l-2.36 6.328q-.39 1.016-.593 1.407-.282.53-.657.765-.359.25-.859.25-.297 0-.672-.14zm6.047 0v-8.61h.953v.797q.344-.469.766-.703.437-.234 1.047-.234.796 0 1.406.406.61.406.906 1.156.313.75.313 1.64 0 .954-.344 1.72-.328.765-.985 1.171-.656.407-1.375.407-.53 0-.953-.22-.422-.233-.687-.562v3.032h-1.047zm.953-5.47q0 1.204.484 1.782.485.563 1.172.563.703 0 1.203-.594.5-.594.5-1.844 0-1.187-.484-1.766-.484-.593-1.172-.593-.672 0-1.187.625-.516.625-.516 1.828zm10.297 1.079l1.094.125q-.25.953-.953 1.484-.704.532-1.782.532-1.359 0-2.172-.844-.796-.844-.796-2.36 0-1.562.812-2.421.813-.875 2.094-.875 1.25 0 2.031.843.797.844.797 2.391v.281h-4.64q.062 1.031.577 1.578.516.532 1.297.532.578 0 .985-.297.422-.313.656-.969zm-3.453-1.703h3.469q-.063-.797-.391-1.188-.516-.609-1.313-.609-.734 0-1.234.484-.484.485-.531 1.313zm10.234 3.703v-.781q-.594.922-1.734.922-.75 0-1.375-.407-.625-.422-.969-1.156t-.344-1.687q0-.922.313-1.688.312-.766.937-1.156.625-.406 1.391-.406.562 0 1 .234.437.234.719.61v-3.079h1.047v8.594h-.985zm-3.328-3.11q0 1.204.5 1.798.5.578 1.188.578.687 0 1.171-.563.485-.562.485-1.719 0-1.28-.5-1.875-.485-.593-1.203-.593-.703 0-1.172.578-.469.562-.469 1.797zM197.06 289.45v-8.594h3.812q1.156 0 1.75.235.594.234.953.828.36.578.36 1.281 0 .922-.594 1.547-.594.625-1.828.797.453.219.687.422.5.453.938 1.14l1.5 2.344H203.2l-1.125-1.781q-.5-.781-.828-1.188-.312-.406-.578-.562-.25-.172-.516-.25-.187-.031-.625-.031H198.2v3.812h-1.14zm1.14-4.797h2.453q.766 0 1.203-.156.454-.172.672-.516.235-.36.235-.781 0-.61-.453-1-.438-.39-1.391-.39H198.2v2.843zm11.781 4.031q-.593.5-1.14.703-.531.204-1.156.204-1.032 0-1.579-.5-.546-.5-.546-1.282 0-.453.203-.828.203-.39.547-.61.343-.233.765-.343.297-.094.938-.172 1.265-.14 1.875-.36v-.265q0-.656-.297-.922-.406-.343-1.203-.343-.735 0-1.094.265-.36.25-.531.906l-1.032-.14q.141-.656.47-1.063.327-.406.937-.625.609-.218 1.406-.218.797 0 1.297.187.5.188.734.469.235.281.328.719.047.265.047.968v1.407q0 1.468.063 1.859.078.39.28.75h-1.108q-.157-.328-.204-.766zm-.093-2.359q-.578.234-1.72.406-.655.094-.921.219-.266.11-.422.328-.14.219-.14.5 0 .422.312.703.328.281.938.281.609 0 1.078-.265.484-.266.703-.735.172-.359.172-1.046v-.391zm3.03 3.125v-6.219h.938v.875q.688-1.015 1.985-1.015.562 0 1.031.203.484.203.719.531.234.328.328.766.047.296.047 1.03v3.829h-1.047v-3.781q0-.656-.125-.969-.125-.313-.438-.5-.312-.203-.734-.203-.672 0-1.172.437-.484.422-.484 1.61v3.406h-1.047zm7 0v-8.594h1.063v4.906l2.485-2.53h1.375l-2.39 2.296 2.624 3.922h-1.297l-2.062-3.188-.735.72v2.468h-1.062zm14.25-1.016v1.016h-5.687q0-.375.125-.734.22-.579.688-1.141.484-.563 1.39-1.297 1.407-1.156 1.891-1.828.5-.672.5-1.266 0-.625-.453-1.047-.453-.437-1.172-.437-.765 0-1.219.453-.453.453-.468 1.266l-1.078-.11q.109-1.218.828-1.843.734-.641 1.968-.641 1.235 0 1.954.688.718.687.718 1.703 0 .515-.218 1.015-.204.485-.704 1.047-.484.547-1.609 1.5-.953.797-1.234 1.094-.266.281-.438.562h4.219zM198.497 303.45v-.922q-.734 1.063-1.984 1.063-.547 0-1.032-.204-.468-.218-.703-.53-.234-.329-.328-.798-.062-.297-.062-.984v-3.844h1.062v3.453q0 .813.063 1.11.093.406.406.656.328.234.812.234.47 0 .875-.234.422-.25.594-.672.188-.422.188-1.219v-3.328h1.047v6.219h-.938zm2.922 0v-6.219h.937v.875q.688-1.015 1.985-1.015.562 0 1.031.203.484.203.719.531.234.328.328.766.047.296.047 1.03v3.829h-1.047v-3.781q0-.656-.125-.969-.125-.313-.438-.5-.312-.203-.734-.203-.672 0-1.172.437-.484.422-.484 1.61v3.406h-1.047zm9.297-.938l.156.922q-.453.094-.797.094-.578 0-.89-.172-.313-.187-.454-.484-.125-.297-.125-1.25v-3.578h-.765v-.813h.765v-1.547l1.047-.625v2.172h1.063v.813h-1.063v3.64q0 .453.047.578.063.125.188.204.125.078.359.078.188 0 .469-.031zm.656 3.329l-.125-.985q.344.094.61.094.343 0 .546-.125.219-.11.36-.313.093-.171.328-.796.015-.079.094-.25l-2.375-6.235h1.14l1.297 3.594q.25.688.453 1.453.188-.734.438-1.422l1.328-3.625h1.047l-2.36 6.328q-.39 1.016-.593 1.407-.282.53-.657.765-.36.25-.86.25-.296 0-.671-.14zm6.047 0v-8.61h.953v.797q.344-.469.766-.703.437-.234 1.047-.234.796 0 1.406.406.61.406.906 1.156.313.75.313 1.64 0 .954-.344 1.72-.328.765-.985 1.171-.656.407-1.375.407-.53 0-.953-.22-.422-.233-.687-.562v3.032h-1.047zm.953-5.47q0 1.204.484 1.782.485.563 1.172.563.703 0 1.203-.594.5-.594.5-1.844 0-1.187-.484-1.766-.484-.593-1.172-.593-.672 0-1.187.625-.516.625-.516 1.828zm10.297 1.079l1.094.125q-.25.953-.953 1.484-.704.532-1.782.532-1.36 0-2.172-.844-.796-.844-.796-2.36 0-1.562.812-2.421.813-.875 2.094-.875 1.25 0 2.031.843.797.844.797 2.391v.281h-4.64q.062 1.031.577 1.578.516.532 1.297.532.578 0 .985-.297.422-.313.656-.969zm-3.453-1.703h3.469q-.063-.797-.391-1.188-.516-.609-1.313-.609-.734 0-1.234.484-.484.485-.531 1.313zm10.234 3.703v-.781q-.594.922-1.734.922-.75 0-1.375-.407-.625-.422-.969-1.156t-.344-1.687q0-.922.313-1.688.312-.766.937-1.156.625-.406 1.39-.406.563 0 1 .234.438.234.72.61v-3.079h1.047v8.594h-.985zm-3.328-3.11q0 1.204.5 1.798.5.578 1.188.578.687 0 1.171-.563.485-.562.485-1.719 0-1.28-.5-1.875-.485-.593-1.203-.593-.703 0-1.172.578-.469.562-.469 1.797zM258.812 289.45v-8.594h3.812q1.156 0 1.75.235.594.234.953.828.36.578.36 1.281 0 .922-.594 1.547-.594.625-1.828.797.453.219.687.422.5.453.938 1.14l1.5 2.344h-1.438l-1.125-1.781q-.5-.781-.828-1.188-.312-.406-.578-.562-.25-.172-.516-.25-.187-.031-.625-.031h-1.328v3.812h-1.14zm1.14-4.797h2.453q.766 0 1.203-.156.454-.172.672-.516.235-.36.235-.781 0-.61-.453-1-.438-.39-1.391-.39h-2.719v2.843zm11.781 4.031q-.593.5-1.14.703-.531.204-1.156.204-1.032 0-1.579-.5-.546-.5-.546-1.282 0-.453.203-.828.203-.39.547-.61.343-.233.765-.343.297-.094.938-.172 1.265-.14 1.875-.36v-.265q0-.656-.297-.922-.406-.343-1.203-.343-.735 0-1.094.265-.36.25-.531.906l-1.032-.14q.141-.656.47-1.063.327-.406.937-.625.609-.218 1.406-.218.797 0 1.297.187.5.188.734.469.235.281.328.719.047.265.047.968v1.407q0 1.468.063 1.859.078.39.28.75h-1.108q-.157-.328-.204-.766zm-.093-2.359q-.578.234-1.72.406-.655.094-.921.219-.266.11-.422.328-.14.219-.14.5 0 .422.312.703.328.281.938.281.609 0 1.078-.265.484-.266.703-.735.172-.359.172-1.046v-.391zm3.03 3.125v-6.219h.938v.875q.688-1.015 1.985-1.015.562 0 1.031.203.484.203.719.531.234.328.328.766.047.296.047 1.03v3.829h-1.047v-3.781q0-.656-.125-.969-.125-.313-.438-.5-.312-.203-.734-.203-.672 0-1.172.437-.484.422-.484 1.61v3.406h-1.047zm7 0v-8.594h1.063v4.906l2.485-2.53h1.375l-2.39 2.296 2.624 3.922h-1.297l-2.062-3.188-.735.72v2.468h-1.062zm12.079 0v-2.063h-3.719v-.968l3.922-5.563h.86v5.563h1.156v.969h-1.156v2.062h-1.063zm0-3.031v-3.86l-2.687 3.86h2.687zm9.219 2.094l.156.921q-.453.094-.797.094-.578 0-.89-.172-.313-.187-.454-.484-.125-.297-.125-1.25v-3.578h-.765v-.813h.765v-1.547l1.047-.625v2.172h1.063v.813h-1.063v3.64q0 .453.047.578.063.125.188.204.125.078.359.078.188 0 .469-.031zm.656 3.328l-.125-.985q.344.094.61.094.343 0 .546-.125.219-.11.36-.313.093-.171.328-.796.015-.079.094-.25l-2.375-6.235h1.14l1.297 3.594q.25.688.453 1.453.188-.734.438-1.422l1.328-3.625h1.047l-2.36 6.328q-.39 1.016-.593 1.407-.282.53-.657.765-.36.25-.86.25-.296 0-.671-.14zm6.047 0v-8.61h.953v.797q.344-.469.766-.703.437-.234 1.047-.234.796 0 1.406.406.61.406.906 1.156.313.75.313 1.64 0 .954-.344 1.72-.328.765-.985 1.171-.656.407-1.375.407-.53 0-.953-.22-.422-.233-.687-.562v3.032h-1.047zm.953-5.47q0 1.204.484 1.782.485.563 1.172.563.703 0 1.203-.594.5-.594.5-1.844 0-1.187-.484-1.766-.484-.593-1.172-.593-.672 0-1.187.625-.516.625-.516 1.828zm10.297 1.079l1.094.125q-.25.953-.953 1.484-.704.532-1.782.532-1.36 0-2.172-.844-.796-.844-.796-2.36 0-1.562.812-2.421.813-.875 2.094-.875 1.25 0 2.031.843.797.844.797 2.391v.281h-4.64q.062 1.031.577 1.578.516.532 1.297.532.578 0 .985-.297.422-.313.656-.969zm-3.453-1.703h3.469q-.063-.797-.391-1.188-.516-.609-1.313-.609-.734 0-1.234.484-.484.485-.531 1.313zm10.234 3.703v-.781q-.594.922-1.734.922-.75 0-1.375-.407-.625-.422-.969-1.156t-.344-1.687q0-.922.313-1.688.312-.766.937-1.156.625-.406 1.39-.406.563 0 1 .234.438.234.72.61v-3.079h1.047v8.594h-.985zm-3.328-3.11q0 1.204.5 1.798.5.578 1.188.578.687 0 1.171-.563.485-.562.485-1.719 0-1.28-.5-1.875-.485-.593-1.203-.593-.703 0-1.172.578-.469.562-.469 1.797zM353.563 289.45v-8.594h3.813q1.156 0 1.75.235.594.234.953.828.36.578.36 1.281 0 .922-.594 1.547-.594.625-1.828.797.453.219.687.422.5.453.938 1.14l1.5 2.344h-1.438l-1.125-1.781q-.5-.781-.828-1.188-.313-.406-.578-.562-.25-.172-.516-.25-.187-.031-.625-.031h-1.328v3.812h-1.14zm1.141-4.797h2.453q.766 0 1.203-.156.453-.172.672-.516.235-.36.235-.781 0-.61-.454-1-.437-.39-1.39-.39h-2.719v2.843zm11.781 4.031q-.593.5-1.14.703-.532.204-1.157.204-1.03 0-1.578-.5-.547-.5-.547-1.282 0-.453.204-.828.203-.39.546-.61.344-.233.766-.343.297-.094.938-.172 1.265-.14 1.875-.36v-.265q0-.656-.297-.922-.407-.343-1.203-.343-.735 0-1.094.265-.36.25-.531.906l-1.032-.14q.141-.656.47-1.063.327-.406.937-.625.609-.218 1.406-.218.797 0 1.297.187.5.188.734.469.234.281.328.719.047.265.047.968v1.407q0 1.468.063 1.859.078.39.28.75h-1.109q-.156-.328-.203-.766zm-.093-2.359q-.579.234-1.72.406-.655.094-.921.219-.266.11-.422.328-.14.219-.14.5 0 .422.312.703.328.281.937.281.61 0 1.079-.265.484-.266.703-.735.172-.359.172-1.046v-.391zm3.03 3.125v-6.219h.938v.875q.688-1.015 1.985-1.015.562 0 1.031.203.484.203.719.531.234.328.328.766.047.296.047 1.03v3.829h-1.047v-3.781q0-.656-.125-.969-.125-.313-.438-.5-.312-.203-.734-.203-.672 0-1.172.437-.484.422-.484 1.61v3.406h-1.047zm7 0v-8.594h1.063v4.906l2.485-2.53h1.375l-2.39 2.296 2.624 3.922h-1.297l-2.062-3.188-.735.72v2.468h-1.062zm12.079 0v-2.063h-3.719v-.968l3.922-5.563h.86v5.563h1.156v.969h-1.157v2.062h-1.062zm0-3.031v-3.86l-2.688 3.86h2.688zM355.001 303.45v-.922q-.734 1.063-1.984 1.063-.547 0-1.032-.204-.468-.218-.703-.53-.234-.329-.328-.798-.062-.297-.062-.984v-3.844h1.062v3.453q0 .813.063 1.11.093.406.406.656.328.234.812.234.47 0 .875-.234.422-.25.594-.672.188-.422.188-1.219v-3.328h1.046v6.219h-.937zm2.922 0v-6.219h.937v.875q.688-1.015 1.985-1.015.562 0 1.031.203.484.203.719.531.234.328.328.766.047.296.047 1.03v3.829h-1.047v-3.781q0-.656-.125-.969-.125-.313-.438-.5-.312-.203-.734-.203-.672 0-1.172.437-.484.422-.484 1.61v3.406h-1.047zm9.297-.938l.156.922q-.453.094-.797.094-.578 0-.89-.172-.313-.187-.454-.484-.125-.297-.125-1.25v-3.578h-.765v-.813h.765v-1.547l1.047-.625v2.172h1.063v.813h-1.063v3.64q0 .453.047.578.063.125.188.204.125.078.359.078.187 0 .469-.031zm.656 3.329l-.125-.985q.344.094.61.094.343 0 .546-.125.219-.11.36-.313.093-.171.328-.796.015-.079.093-.25l-2.375-6.235h1.141l1.297 3.594q.25.688.453 1.453.188-.734.438-1.422l1.328-3.625h1.047l-2.36 6.328q-.39 1.016-.594 1.407-.28.53-.656.765-.36.25-.86.25-.296 0-.671-.14zm6.047 0v-8.61h.953v.797q.344-.469.766-.703.437-.234 1.046-.234.797 0 1.407.406t.906 1.156q.312.75.312 1.64 0 .954-.343 1.72-.328.765-.985 1.171-.656.407-1.375.407-.53 0-.953-.22-.422-.233-.687-.562v3.032h-1.047zm.953-5.47q0 1.204.484 1.782.485.563 1.172.563.703 0 1.203-.594.5-.594.5-1.844 0-1.187-.484-1.766-.484-.593-1.172-.593-.672 0-1.187.625-.516.625-.516 1.828zm10.297 1.079l1.094.125q-.25.953-.954 1.484-.703.532-1.78.532-1.36 0-2.173-.844-.797-.844-.797-2.36 0-1.562.813-2.421.812-.875 2.094-.875 1.25 0 2.031.843.797.844.797 2.391v.281h-4.64q.062 1.031.577 1.578.516.532 1.297.532.578 0 .985-.297.421-.313.656-.969zm-3.453-1.703h3.468q-.062-.797-.39-1.188-.516-.609-1.313-.609-.734 0-1.234.484-.484.485-.531 1.313zm10.234 3.703v-.781q-.594.922-1.734.922-.75 0-1.375-.407-.625-.422-.969-1.156t-.344-1.687q0-.922.313-1.688.312-.766.937-1.156.625-.406 1.39-.406.563 0 1 .234.438.234.72.61v-3.079h1.046v8.594h-.984zm-3.328-3.11q0 1.204.5 1.798.5.578 1.187.578.688 0 1.172-.563.485-.562.485-1.719 0-1.28-.5-1.875-.485-.593-1.203-.593-.704 0-1.172.578-.469.562-.469 1.797zM415.315 289.45v-8.594h3.813q1.156 0 1.75.235.594.234.953.828.36.578.36 1.281 0 .922-.594 1.547-.594.625-1.828.797.453.219.687.422.5.453.938 1.14l1.5 2.344h-1.438l-1.125-1.781q-.5-.781-.828-1.188-.313-.406-.578-.562-.25-.172-.516-.25-.187-.031-.625-.031h-1.328v3.812h-1.14zm1.141-4.797h2.453q.766 0 1.203-.156.453-.172.672-.516.235-.36.235-.781 0-.61-.454-1-.437-.39-1.39-.39h-2.719v2.843zm11.781 4.031q-.593.5-1.14.703-.532.204-1.157.204-1.03 0-1.578-.5-.547-.5-.547-1.282 0-.453.204-.828.203-.39.546-.61.344-.233.766-.343.297-.094.938-.172 1.265-.14 1.875-.36v-.265q0-.656-.297-.922-.407-.343-1.203-.343-.735 0-1.094.265-.36.25-.531.906l-1.032-.14q.141-.656.47-1.063.327-.406.937-.625.609-.218 1.406-.218.797 0 1.297.187.5.188.734.469.234.281.328.719.047.265.047.968v1.407q0 1.468.063 1.859.078.39.28.75h-1.109q-.156-.328-.203-.766zm-.093-2.359q-.579.234-1.72.406-.655.094-.921.219-.266.11-.422.328-.14.219-.14.5 0 .422.312.703.328.281.937.281.61 0 1.079-.265.484-.266.703-.735.172-.359.172-1.046v-.391zm3.03 3.125v-6.219h.938v.875q.688-1.015 1.985-1.015.562 0 1.031.203.484.203.719.531.234.328.328.766.047.296.047 1.03v3.829h-1.047v-3.781q0-.656-.125-.969-.125-.313-.438-.5-.312-.203-.734-.203-.672 0-1.172.437-.484.422-.484 1.61v3.406h-1.047zm7 0v-8.594h1.063v4.906l2.485-2.53h1.375l-2.39 2.296 2.624 3.922h-1.297l-2.062-3.188-.735.72v2.468h-1.062zm10.329-4.656q-.656-.25-.984-.688-.313-.453-.313-1.062 0-.938.672-1.578.687-.641 1.797-.641 1.125 0 1.812.656.688.656.688 1.594 0 .594-.313 1.031-.312.438-.953.688.797.25 1.203.828.407.578.407 1.375 0 1.094-.782 1.844-.765.75-2.047.75-1.265 0-2.046-.75-.782-.75-.782-1.875 0-.844.422-1.407.438-.562 1.219-.765zm-.219-1.797q0 .61.39 1 .407.39 1.032.39.61 0 1-.375.39-.39.39-.953 0-.578-.406-.968-.406-.407-1-.407-.609 0-1.015.391-.39.39-.39.922zm-.328 3.969q0 .453.203.875.219.421.64.656.423.234.907.234.75 0 1.234-.484.5-.485.5-1.235 0-.765-.5-1.265-.5-.5-1.265-.5-.75 0-1.235.5-.484.484-.484 1.219zm11.516 1.546l.156.922q-.453.094-.797.094-.578 0-.89-.172-.313-.187-.454-.484-.125-.297-.125-1.25v-3.578h-.765v-.813h.765v-1.547l1.047-.625v2.172h1.063v.813h-1.063v3.64q0 .453.047.578.063.125.188.204.125.078.359.078.187 0 .469-.031zm.656 3.329l-.125-.985q.344.094.61.094.343 0 .546-.125.219-.11.36-.313.093-.171.328-.796.015-.079.093-.25l-2.375-6.235h1.141l1.297 3.594q.25.688.453 1.453.188-.734.438-1.422l1.328-3.625h1.047l-2.36 6.328q-.39 1.016-.594 1.407-.28.53-.656.765-.36.25-.86.25-.296 0-.671-.14zm6.047 0v-8.61h.953v.797q.344-.469.766-.703.437-.234 1.046-.234.797 0 1.407.406t.906 1.156q.312.75.312 1.64 0 .954-.343 1.72-.328.765-.985 1.171-.656.407-1.375.407-.53 0-.953-.22-.422-.233-.687-.562v3.032h-1.047zm.953-5.47q0 1.204.484 1.782.485.563 1.172.563.703 0 1.203-.594.5-.594.5-1.844 0-1.187-.484-1.766-.484-.593-1.172-.593-.672 0-1.187.625-.516.625-.516 1.828zm10.297 1.079l1.094.125q-.25.953-.954 1.484-.703.532-1.78.532-1.36 0-2.173-.844-.797-.844-.797-2.36 0-1.562.813-2.421.812-.875 2.094-.875 1.25 0 2.031.843.797.844.797 2.391v.281h-4.64q.062 1.031.577 1.578.516.532 1.297.532.578 0 .985-.297.421-.313.656-.969zm-3.453-1.703h3.468q-.062-.797-.39-1.188-.516-.609-1.313-.609-.734 0-1.234.484-.484.485-.531 1.313zm10.234 3.703v-.781q-.594.922-1.734.922-.75 0-1.375-.407-.625-.422-.969-1.156t-.344-1.687q0-.922.313-1.688.312-.766.937-1.156.625-.406 1.39-.406.563 0 1 .234.438.234.72.61v-3.079h1.046v8.594h-.984zm-3.328-3.11q0 1.204.5 1.798.5.578 1.187.578.688 0 1.172-.563.485-.562.485-1.719 0-1.28-.5-1.875-.485-.593-1.203-.593-.704 0-1.172.578-.469.562-.469 1.797zM510.067 289.45v-8.594h3.813q1.156 0 1.75.235.594.234.953.828.36.578.36 1.281 0 .922-.594 1.547-.594.625-1.829.797.454.219.688.422.5.453.938 1.14l1.5 2.344h-1.438l-1.125-1.781q-.5-.781-.828-1.188-.313-.406-.578-.562-.25-.172-.516-.25-.187-.031-.625-.031h-1.328v3.812h-1.14zm1.141-4.797h2.453q.766 0 1.203-.156.453-.172.672-.516.235-.36.235-.781 0-.61-.454-1-.437-.39-1.39-.39h-2.719v2.843zm11.781 4.031q-.594.5-1.14.703-.532.204-1.157.204-1.03 0-1.578-.5-.547-.5-.547-1.282 0-.453.203-.828.204-.39.547-.61.344-.233.766-.343.297-.094.938-.172 1.265-.14 1.875-.36v-.265q0-.656-.297-.922-.407-.343-1.204-.343-.734 0-1.093.265-.36.25-.532.906l-1.03-.14q.14-.656.468-1.063.328-.406.938-.625.609-.218 1.406-.218.797 0 1.297.187.5.188.734.469.234.281.328.719.047.265.047.968v1.407q0 1.468.063 1.859.078.39.28.75h-1.109q-.156-.328-.203-.766zm-.094-2.359q-.578.234-1.718.406-.657.094-.922.219-.266.11-.422.328-.14.219-.14.5 0 .422.312.703.328.281.937.281.61 0 1.078-.265.485-.266.704-.735.171-.359.171-1.046v-.391zm3.032 3.125v-6.219h.937v.875q.688-1.015 1.985-1.015.562 0 1.03.203.485.203.72.531.234.328.328.766.047.296.047 1.03v3.829h-1.047v-3.781q0-.656-.125-.969-.125-.313-.438-.5-.312-.203-.734-.203-.672 0-1.172.437-.484.422-.484 1.61v3.406h-1.047zm7 0v-8.594h1.062v4.906l2.485-2.53h1.375l-2.391 2.296 2.625 3.922h-1.297l-2.062-3.188-.735.72v2.468h-1.062zm10.328-4.656q-.656-.25-.985-.688-.312-.453-.312-1.062 0-.938.672-1.578.687-.641 1.797-.641 1.125 0 1.812.656.688.656.688 1.594 0 .594-.313 1.031-.312.438-.953.688.797.25 1.203.828t.406 1.375q0 1.094-.78 1.844-.766.75-2.048.75-1.265 0-2.047-.75-.78-.75-.78-1.875 0-.844.421-1.407.438-.562 1.219-.765zm-.219-1.797q0 .61.39 1 .407.39 1.032.39.61 0 1-.375.39-.39.39-.953 0-.578-.406-.968-.406-.407-1-.407-.609 0-1.015.391-.39.39-.39.922zm-.328 3.969q0 .453.203.875.219.421.64.656.423.234.907.234.75 0 1.234-.484.5-.485.5-1.235 0-.765-.5-1.265-.5-.5-1.265-.5-.75 0-1.235.5-.484.484-.484 1.219zM511.505 303.45v-.922q-.734 1.063-1.984 1.063-.547 0-1.032-.204-.468-.218-.703-.53-.234-.329-.328-.798-.062-.297-.062-.984v-3.844h1.062v3.453q0 .813.063 1.11.093.406.406.656.328.234.812.234.469 0 .875-.234.422-.25.594-.672.188-.422.188-1.219v-3.328h1.046v6.219h-.937zm2.922 0v-6.219h.937v.875q.688-1.015 1.985-1.015.562 0 1.03.203.485.203.72.531.234.328.328.766.047.296.047 1.03v3.829h-1.047v-3.781q0-.656-.125-.969-.125-.313-.438-.5-.312-.203-.734-.203-.672 0-1.172.437-.484.422-.484 1.61v3.406h-1.047zm9.297-.938l.156.922q-.453.094-.797.094-.578 0-.89-.172-.313-.187-.454-.484-.125-.297-.125-1.25v-3.578h-.765v-.813h.765v-1.547l1.047-.625v2.172h1.063v.813h-1.063v3.64q0 .453.047.578.063.125.188.204.125.078.359.078.187 0 .469-.031zm.656 3.329l-.125-.985q.344.094.61.094.343 0 .546-.125.219-.11.36-.313.093-.171.328-.796.015-.079.093-.25l-2.375-6.235h1.141l1.297 3.594q.25.688.453 1.453.188-.734.438-1.422l1.328-3.625h1.046l-2.359 6.328q-.39 1.016-.594 1.407-.28.53-.656.765-.36.25-.86.25-.296 0-.671-.14zm6.047 0v-8.61h.953v.797q.344-.469.765-.703.438-.234 1.047-.234.797 0 1.407.406.609.406.906 1.156.312.75.312 1.64 0 .954-.343 1.72-.329.765-.985 1.171-.656.407-1.375.407-.531 0-.953-.22-.422-.233-.687-.562v3.032h-1.047zm.953-5.47q0 1.204.484 1.782.485.563 1.172.563.703 0 1.203-.594.5-.594.5-1.844 0-1.187-.484-1.766-.485-.593-1.172-.593-.672 0-1.188.625-.515.625-.515 1.828zm10.297 1.079l1.093.125q-.25.953-.953 1.484-.703.532-1.78.532-1.36 0-2.173-.844-.797-.844-.797-2.36 0-1.562.813-2.421.812-.875 2.094-.875 1.25 0 2.03.843.798.844.798 2.391v.281h-4.64q.062 1.031.577 1.578.516.532 1.297.532.578 0 .985-.297.421-.313.656-.969zm-3.453-1.703h3.468q-.062-.797-.39-1.188-.516-.609-1.313-.609-.734 0-1.234.484-.485.485-.531 1.313zm10.234 3.703v-.781q-.594.922-1.734.922-.75 0-1.375-.407-.625-.422-.97-1.156-.343-.734-.343-1.687 0-.922.313-1.688.312-.766.937-1.156.625-.406 1.39-.406.563 0 1 .234.438.234.72.61v-3.079h1.046v8.594h-.984zm-3.328-3.11q0 1.204.5 1.798.5.578 1.187.578.688 0 1.172-.563.485-.562.485-1.719 0-1.28-.5-1.875-.485-.593-1.204-.593-.703 0-1.171.578-.47.562-.47 1.797z"/><path fill="#757575" d="M30.316 32.534l1.89.47q-.594 2.343-2.14 3.577-1.547 1.219-3.797 1.219-2.313 0-3.766-.938-1.437-.953-2.203-2.734-.75-1.797-.75-3.844 0-2.234.844-3.89.86-1.672 2.437-2.531 1.578-.875 3.469-.875 2.156 0 3.61 1.093 1.468 1.094 2.046 3.078l-1.86.438q-.5-1.563-1.452-2.266-.938-.718-2.375-.718-1.656 0-2.766.796-1.11.782-1.562 2.125-.438 1.329-.438 2.735 0 1.828.531 3.203.532 1.36 1.657 2.031 1.125.672 2.422.672 1.593 0 2.703-.922 1.109-.922 1.5-2.719zm2.906-.172q0-2.875 1.594-4.265 1.343-1.156 3.265-1.156 2.14 0 3.485 1.406 1.359 1.406 1.359 3.875 0 2-.594 3.156-.594 1.14-1.75 1.781-1.14.625-2.5.625-2.187 0-3.531-1.39-1.328-1.407-1.328-4.032zm1.797 0q0 2 .86 2.985.874.984 2.202.984 1.313 0 2.172-.984.875-1 .875-3.047 0-1.922-.875-2.906-.875-1-2.172-1-1.328 0-2.203 1-.86.984-.86 2.968zm9.843 5.188V27.175h1.579v1.453q.484-.75 1.296-1.219.813-.468 1.844-.468 1.156 0 1.89.484.735.469 1.048 1.328 1.234-1.812 3.203-1.812 1.547 0 2.375.859.828.86.828 2.625v7.125h-1.75v-6.531q0-1.063-.172-1.516-.172-.469-.625-.75-.437-.281-1.047-.281-1.094 0-1.828.734-.719.719-.719 2.313v6.031h-1.75v-6.734q0-1.172-.437-1.75-.422-.594-1.406-.594-.735 0-1.375.39-.625.391-.907 1.141-.28.75-.28 2.172v5.375h-1.767zm17 3.969V27.175h1.61v1.344q.562-.781 1.265-1.172.72-.406 1.735-.406 1.328 0 2.344.687 1.015.688 1.53 1.938.532 1.234.532 2.718 0 1.594-.578 2.875-.563 1.266-1.656 1.953-1.094.672-2.297.672-.875 0-1.578-.375-.688-.375-1.14-.937v5.047h-1.767zm1.594-9.094q0 2 .813 2.953.812.953 1.968.953 1.172 0 2-.984.844-.985.844-3.078 0-1.969-.828-2.953-.812-1-1.937-1t-2 1.062q-.86 1.047-.86 3.047zm9.422-7.172v-2.015h1.766v2.015h-1.766zm0 12.297V27.175h1.766V37.55h-1.766zm3.953 0V23.238h1.75V37.55h-1.75zm10.813-1.281q-.985.828-1.89 1.172-.907.343-1.938.343-1.704 0-2.625-.828-.922-.844-.922-2.14 0-.766.343-1.391.36-.625.922-1 .563-.39 1.266-.594.516-.125 1.563-.265 2.124-.25 3.124-.594.016-.36.016-.469 0-1.062-.5-1.515-.672-.594-2-.594-1.25 0-1.844.437-.578.438-.859 1.547l-1.719-.234q.235-1.11.766-1.781.531-.688 1.547-1.047 1.015-.375 2.36-.375 1.327 0 2.155.312.828.313 1.22.797.39.469.546 1.188.094.453.094 1.625v2.343q0 2.453.11 3.11.108.64.452 1.234h-1.844q-.265-.547-.343-1.281zm-.157-3.922q-.953.39-2.874.656-1.079.156-1.532.36-.437.187-.687.562-.25.375-.25.844 0 .703.531 1.172.531.468 1.563.468 1.015 0 1.796-.437.797-.453 1.172-1.219.281-.61.281-1.766v-.64zm8.22 3.625l.25 1.562q-.735.157-1.329.157-.953 0-1.484-.297-.516-.313-.735-.797-.218-.5-.218-2.078V28.55h-1.282v-1.375h1.282v-2.563l1.75-1.062v3.625h1.765v1.375h-1.765v6.062q0 .75.093.97.094.202.297.343.219.125.61.125.28 0 .765-.078zm2.171-10.719v-2.015h1.766v2.015h-1.766zm0 12.297V27.175h1.766V37.55h-1.766zm3.344-5.188q0-2.875 1.594-4.265 1.343-1.156 3.265-1.156 2.14 0 3.485 1.406 1.359 1.406 1.359 3.875 0 2-.594 3.156-.594 1.14-1.75 1.781-1.14.625-2.5.625-2.187 0-3.531-1.39-1.328-1.407-1.328-4.032zm1.797 0q0 2 .86 2.985.874.984 2.202.984 1.313 0 2.172-.984.875-1 .875-3.047 0-1.922-.875-2.906-.875-1-2.172-1-1.328 0-2.203 1-.86.984-.86 2.968zm9.843 5.188V27.175h1.594v1.484q1.14-1.718 3.297-1.718.938 0 1.719.343.797.329 1.187.875.391.547.547 1.297.094.5.094 1.719v6.375h-1.766v-6.312q0-1.079-.203-1.61-.203-.531-.734-.844-.516-.312-1.219-.312-1.125 0-1.937.719-.813.703-.813 2.687v5.672h-1.766zm20.844-1.578l.25 1.562q-.734.157-1.328.157-.953 0-1.484-.297-.516-.313-.735-.797-.218-.5-.218-2.078V28.55h-1.282v-1.375h1.282v-2.563l1.75-1.062v3.625h1.765v1.375h-1.765v6.062q0 .75.093.97.094.202.297.343.219.125.61.125.28 0 .765-.078zm2.172-10.719v-2.015h1.766v2.015h-1.766zm0 12.297V27.175h1.766V37.55h-1.766zm3.985 0V27.175h1.578v1.453q.484-.75 1.297-1.219.812-.468 1.843-.468 1.157 0 1.89.484.735.469 1.048 1.328 1.234-1.812 3.203-1.812 1.547 0 2.375.859.828.86.828 2.625v7.125h-1.75v-6.531q0-1.063-.172-1.516-.172-.469-.625-.75-.437-.281-1.047-.281-1.093 0-1.828.734-.719.719-.719 2.313v6.031h-1.75v-6.734q0-1.172-.437-1.75-.422-.594-1.406-.594-.735 0-1.375.39-.625.391-.907 1.141-.28.75-.28 2.172v5.375h-1.766zm24.109-3.344l1.812.235q-.421 1.578-1.593 2.468-1.157.875-2.97.875-2.265 0-3.608-1.39-1.329-1.407-1.329-3.938 0-2.625 1.344-4.062 1.344-1.453 3.5-1.453 2.078 0 3.39 1.422 1.329 1.406 1.329 3.984 0 .156-.016.469h-7.734q.094 1.703.969 2.609.875.906 2.172.906.968 0 1.64-.5.688-.515 1.094-1.625zm-5.781-2.844h5.797q-.11-1.296-.657-1.953-.843-1.015-2.187-1.015-1.203 0-2.031.812-.829.797-.922 2.157zm15.03 1q0-2.875 1.595-4.265 1.343-1.156 3.265-1.156 2.14 0 3.485 1.406 1.359 1.406 1.359 3.875 0 2-.594 3.156-.593 1.14-1.75 1.781-1.14.625-2.5.625-2.187 0-3.531-1.39-1.328-1.407-1.328-4.032zm1.798 0q0 2 .86 2.985.874.984 2.202.984 1.313 0 2.172-.984.875-1 .875-3.047 0-1.922-.875-2.906-.875-1-2.172-1-1.328 0-2.203 1-.86.984-.86 2.968zm10.265 5.188v-9h-1.546v-1.375h1.546v-1.094q0-1.047.188-1.562.25-.688.89-1.11.641-.421 1.797-.421.75 0 1.641.171l-.266 1.532q-.546-.094-1.03-.094-.798 0-1.141.344-.329.343-.329 1.28v.954h2.032v1.375h-2.032v9h-1.75zm11.094-3.75l1.844-.156q.203 1.343.953 2.031.75.672 1.813.672 1.265 0 2.14-.953.875-.953.875-2.547 0-1.5-.844-2.36-.843-.874-2.203-.874-.86 0-1.547.39-.671.375-1.062 1l-1.656-.219 1.39-7.359h7.125v1.688h-5.718l-.766 3.843q1.281-.906 2.703-.906 1.875 0 3.156 1.313 1.297 1.296 1.297 3.328 0 1.953-1.14 3.359-1.375 1.75-3.75 1.75-1.954 0-3.204-1.094-1.234-1.094-1.406-2.906zm21.328 2.172l.25 1.562q-.734.157-1.328.157-.953 0-1.484-.297-.516-.313-.735-.797-.218-.5-.218-2.078V28.55h-1.282v-1.375h1.282v-2.563l1.75-1.062v3.625h1.765v1.375h-1.765v6.062q0 .75.093.97.094.202.297.343.219.125.61.125.28 0 .765-.078zm2.578 1.578v-9h-1.546v-1.375h1.546v-1.094q0-1.047.188-1.562.25-.688.89-1.11.641-.421 1.797-.421.75 0 1.641.171l-.266 1.532q-.546-.094-1.03-.094-.798 0-1.141.344-.329.343-.329 1.28v.954h2.032v1.375h-2.032v9h-1.75zm6.079 0v-2h2v2h-2zm5.484 0V27.175h1.578v1.578q.61-1.11 1.125-1.453.516-.36 1.125-.36.89 0 1.813.563l-.61 1.64q-.64-.39-1.281-.39-.578 0-1.047.36-.453.343-.656.953-.281.937-.281 2.046v5.438h-1.766zm14.125-3.344l1.812.235q-.421 1.578-1.593 2.468-1.157.875-2.97.875-2.265 0-3.608-1.39-1.329-1.407-1.329-3.938 0-2.625 1.344-4.062 1.344-1.453 3.5-1.453 2.078 0 3.39 1.422 1.329 1.406 1.329 3.984 0 .156-.016.469h-7.734q.094 1.703.969 2.609.875.906 2.172.906.968 0 1.64-.5.688-.515 1.094-1.625zm-5.781-2.844h5.797q-.11-1.296-.657-1.953-.843-1.015-2.187-1.015-1.203 0-2.031.812-.829.797-.922 2.157zm16.406 6.188v-1.313q-.984 1.547-2.906 1.547-1.235 0-2.282-.687-1.03-.688-1.609-1.906-.563-1.22-.563-2.813 0-1.562.516-2.828.516-1.266 1.547-1.938 1.047-.671 2.313-.671.937 0 1.671.406.735.39 1.204 1.015v-5.124h1.734V37.55h-1.625zm-5.563-5.172q0 1.984.844 2.969.844.984 1.985.984 1.156 0 1.953-.937.812-.938.812-2.875 0-2.125-.828-3.125-.813-1-2.016-1-1.171 0-1.968.969-.782.953-.782 3.015zm16.625 5.172v-1.531q-1.203 1.765-3.28 1.765-.923 0-1.72-.343-.796-.36-1.187-.891-.375-.531-.531-1.313-.11-.515-.11-1.64v-6.422h1.75v5.75q0 1.375.11 1.86.172.687.703 1.093.547.39 1.328.39.797 0 1.484-.406.703-.406.985-1.093.297-.703.297-2.032v-5.562h1.75V37.55h-1.579zm10.985-3.797l1.719.219q-.282 1.797-1.454 2.812-1.156 1-2.859 1-2.125 0-3.422-1.39-1.297-1.39-1.297-3.985 0-1.687.547-2.937.563-1.266 1.703-1.89 1.14-.641 2.485-.641 1.687 0 2.75.859 1.078.86 1.39 2.422l-1.719.265q-.234-1.046-.859-1.562-.625-.531-1.5-.531-1.328 0-2.156.953-.828.953-.828 3 0 2.094.797 3.047.797.937 2.093.937 1.032 0 1.72-.625.702-.64.89-1.953zm10.328.453l1.812.235q-.421 1.578-1.593 2.468-1.157.875-2.97.875-2.265 0-3.608-1.39-1.329-1.407-1.329-3.938 0-2.625 1.344-4.062 1.344-1.453 3.5-1.453 2.078 0 3.39 1.422 1.329 1.406 1.329 3.984 0 .156-.016.469h-7.734q.094 1.703.969 2.609.875.906 2.172.906.968 0 1.64-.5.688-.515 1.094-1.625zm-5.781-2.844h5.797q-.11-1.296-.657-1.953-.844-1.015-2.187-1.015-1.203 0-2.031.812-.829.797-.922 2.157zm8.062 10.157v-1.266h11.64v1.266h-11.64zm12.61-3.969V27.175h1.578v1.453q.484-.75 1.297-1.219.812-.468 1.843-.468 1.156 0 1.89.484.735.469 1.048 1.328 1.234-1.812 3.203-1.812 1.547 0 2.375.859.828.86.828 2.625v7.125h-1.75v-6.531q0-1.063-.172-1.516-.172-.469-.625-.75-.437-.281-1.047-.281-1.094 0-1.828.734-.719.719-.719 2.313v6.031h-1.75v-6.734q0-1.172-.437-1.75-.422-.594-1.406-.594-.735 0-1.375.39-.625.391-.907 1.141-.28.75-.28 2.172v5.375h-1.767zm24.109-3.344l1.812.235q-.421 1.578-1.593 2.468-1.157.875-2.97.875-2.265 0-3.608-1.39-1.329-1.407-1.329-3.938 0-2.625 1.344-4.062 1.344-1.453 3.5-1.453 2.078 0 3.39 1.422 1.329 1.406 1.329 3.984 0 .156-.016.469h-7.734q.094 1.703.969 2.609.875.906 2.172.906.968 0 1.64-.5.688-.515 1.094-1.625zm-5.781-2.844h5.797q-.11-1.296-.657-1.953-.844-1.015-2.187-1.015-1.203 0-2.031.812-.829.797-.922 2.157zm16.453 4.907q-.985.828-1.89 1.172-.907.343-1.938.343-1.703 0-2.625-.828-.922-.844-.922-2.14 0-.766.344-1.391.359-.625.921-1 .563-.39 1.266-.594.516-.125 1.563-.265 2.125-.25 3.125-.594.015-.36.015-.469 0-1.062-.5-1.515-.672-.594-2-.594-1.25 0-1.844.437-.578.438-.859 1.547l-1.719-.234q.235-1.11.766-1.781.531-.688 1.547-1.047 1.015-.375 2.36-.375 1.327 0 2.155.312.829.313 1.22.797.39.469.546 1.188.094.453.094 1.625v2.343q0 2.453.11 3.11.108.64.452 1.234h-1.844q-.265-.547-.343-1.281zm-.156-3.922q-.954.39-2.875.656-1.079.156-1.532.36-.437.187-.687.562-.25.375-.25.844 0 .703.531 1.172.531.468 1.563.468 1.015 0 1.796-.437.797-.453 1.172-1.219.281-.61.281-1.766v-.64zm4.375 5.203V27.175h1.593v1.484q1.14-1.718 3.297-1.718.938 0 1.719.343.797.329 1.187.875.391.547.547 1.297.094.5.094 1.719v6.375h-1.766v-6.312q0-1.079-.203-1.61-.203-.531-.734-.844-.516-.312-1.219-.312-1.125 0-1.937.719-.813.703-.813 2.687v5.672h-1.765zm16.359-5.188q0-2.875 1.594-4.265 1.343-1.156 3.265-1.156 2.14 0 3.485 1.406 1.359 1.406 1.359 3.875 0 2-.594 3.156-.594 1.14-1.75 1.781-1.14.625-2.5.625-2.187 0-3.531-1.39-1.328-1.407-1.328-4.032zm1.797 0q0 2 .86 2.985.874.984 2.202.984 1.313 0 2.172-.984.875-1 .875-3.047 0-1.922-.875-2.906-.875-1-2.172-1-1.328 0-2.203 1-.86.984-.86 2.968zm9.844 9.157V27.175h1.609v1.344q.562-.781 1.266-1.172.718-.406 1.734-.406 1.328 0 2.344.687 1.015.688 1.53 1.938.532 1.234.532 2.718 0 1.594-.578 2.875-.563 1.266-1.656 1.953-1.094.672-2.297.672-.875 0-1.578-.375-.688-.375-1.14-.937v5.047h-1.767zm1.593-9.094q0 2 .813 2.953.812.953 1.969.953 1.171 0 2-.984.843-.985.843-3.078 0-1.969-.828-2.953-.812-1-1.937-1t-2 1.062q-.86 1.047-.86 3.047zm16.516 1.781l1.812.235q-.421 1.578-1.593 2.468-1.157.875-2.97.875-2.265 0-3.608-1.39-1.329-1.407-1.329-3.938 0-2.625 1.344-4.062 1.344-1.453 3.5-1.453 2.078 0 3.39 1.422 1.329 1.406 1.329 3.984 0 .156-.016.469h-7.734q.094 1.703.969 2.609.875.906 2.172.906.968 0 1.64-.5.688-.515 1.094-1.625zm-5.781-2.844h5.797q-.11-1.296-.657-1.953-.844-1.015-2.187-1.015-1.203 0-2.031.812-.829.797-.922 2.157zm9.656 6.188V27.175h1.578v1.578q.61-1.11 1.125-1.453.516-.36 1.125-.36.89 0 1.813.563l-.61 1.64q-.64-.39-1.281-.39-.578 0-1.047.36-.453.343-.656.953-.281.937-.281 2.046v5.438h-1.766zm13.797-1.281q-.985.828-1.89 1.172-.907.343-1.938.343-1.703 0-2.625-.828-.922-.844-.922-2.14 0-.766.344-1.391.359-.625.921-1 .563-.39 1.266-.594.516-.125 1.563-.265 2.125-.25 3.125-.594.015-.36.015-.469 0-1.062-.5-1.515-.672-.594-2-.594-1.25 0-1.844.437-.578.438-.859 1.547l-1.719-.234q.235-1.11.766-1.781.531-.688 1.547-1.047 1.015-.375 2.36-.375 1.327 0 2.155.312.829.313 1.22.797.39.469.546 1.188.094.453.094 1.625v2.343q0 2.453.11 3.11.108.64.452 1.234h-1.844q-.265-.547-.343-1.281zm-.156-3.922q-.954.39-2.875.656-1.079.156-1.532.36-.437.187-.687.562-.25.375-.25.844 0 .703.531 1.172.531.468 1.563.468 1.015 0 1.796-.437.797-.453 1.172-1.219.281-.61.281-1.766v-.64zm8.218 3.625l.25 1.562q-.734.157-1.328.157-.953 0-1.484-.297-.516-.313-.735-.797-.218-.5-.218-2.078V28.55h-1.282v-1.375h1.282v-2.563l1.75-1.062v3.625h1.765v1.375h-1.765v6.062q0 .75.093.97.094.202.297.343.219.125.61.125.28 0 .765-.078zm2.172-10.719v-2.015h1.766v2.015h-1.766zm0 12.297V27.175h1.766V37.55h-1.766zm3.344-5.188q0-2.875 1.594-4.265 1.343-1.156 3.265-1.156 2.14 0 3.485 1.406 1.359 1.406 1.359 3.875 0 2-.594 3.156-.594 1.14-1.75 1.781-1.14.625-2.5.625-2.187 0-3.531-1.39-1.328-1.407-1.328-4.032zm1.797 0q0 2 .86 2.985.874.984 2.202.984 1.313 0 2.172-.984.875-1 .875-3.047 0-1.922-.875-2.906-.875-1-2.172-1-1.328 0-2.203 1-.86.984-.86 2.968zm9.844 5.188V27.175h1.593v1.484q1.14-1.718 3.297-1.718.938 0 1.719.343.797.329 1.187.875.391.547.547 1.297.094.5.094 1.719v6.375h-1.766v-6.312q0-1.079-.203-1.61-.203-.531-.734-.844-.516-.312-1.219-.312-1.125 0-1.937.719-.813.703-.813 2.687v5.672h-1.765zm10.296-3.094l1.75-.281q.141 1.047.813 1.61.672.546 1.875.546 1.203 0 1.781-.484.594-.5.594-1.156 0-.594-.516-.938-.36-.234-1.797-.594-1.937-.5-2.687-.843-.734-.36-1.125-.985-.39-.64-.39-1.406 0-.688.312-1.281.328-.594.875-.985.406-.296 1.11-.5.718-.218 1.53-.218 1.22 0 2.141.359.922.344 1.36.953.437.594.609 1.594l-1.719.234q-.125-.797-.688-1.234-.562-.453-1.578-.453-1.218 0-1.734.406-.516.39-.516.922 0 .344.22.625.202.281.671.469.266.093 1.547.437 1.875.5 2.61.828.734.313 1.156.922.421.594.421 1.5 0 .875-.515 1.656-.516.782-1.485 1.203-.968.422-2.187.422-2.016 0-3.078-.843-1.063-.844-1.36-2.485z"/></svg>